<svg width="212" height="115" viewBox="0 0 212 115" fill="none" xmlns="http://www.w3.org/2000/svg">
<g filter="url(#filter0_d_219_21449)">
<path d="M191.109 8.26235C190.938 7.16756 189.909 6.42085 188.815 6.5973L162.238 10.8838L173.193 80.8399L199.808 76.7963C200.904 76.6298 201.655 75.6043 201.484 74.5095L199.333 60.7779C199.175 59.7694 198.282 59.0518 197.263 59.0051C193.761 58.8447 189.988 57.76 187.016 55.6761C178.539 49.7327 176.838 38.8674 183.092 30.6172C185.284 27.7243 188.545 25.5381 191.83 24.3149C192.787 23.9587 193.418 23.0025 193.26 21.994L191.109 8.26235ZM162.238 10.8838L11.9798 34.2828C10.8877 34.4529 10.1407 35.4765 10.3117 36.5684L12.4632 50.3075C12.6212 51.3159 13.515 52.0262 14.5343 52.0803C17.549 52.2404 19.852 53.2553 22.786 55.3124C31.2627 61.2557 32.9643 72.1211 26.7103 80.3713C24.5432 83.2301 22.7476 85.4676 19.9488 86.7204C19.0171 87.1374 18.379 88.0828 18.5369 89.0913L20.6885 102.83C20.8595 103.922 21.8838 104.668 22.9756 104.497L173.193 80.8399L162.238 10.8838Z" fill="url(#paint0_radial_219_21449)"/>
<path d="M188.974 7.58454C189.521 7.49632 190.036 7.86967 190.121 8.41707L192.272 22.1487C192.348 22.6346 192.045 23.168 191.481 23.3778C188.05 24.6553 184.621 26.9439 182.295 30.0131C175.698 38.715 177.501 50.2261 186.442 56.4948C189.595 58.7058 193.56 59.8365 197.217 60.0041C197.818 60.0316 198.269 60.4467 198.345 60.9326L200.496 74.6643C200.582 75.2117 200.206 75.7244 199.658 75.8076L174.027 79.7017L163.38 11.7125L188.974 7.58454ZM161.405 12.0256L172.051 80.0075L22.82 103.509C22.2741 103.595 21.762 103.222 21.6765 102.676L19.5249 88.9366C19.4509 88.4639 19.7481 87.9059 20.3574 87.6331C23.4217 86.2615 25.3562 83.813 27.5072 80.9754C34.1036 72.2734 32.3009 60.7623 23.3601 54.4936C20.3348 52.3725 17.8527 51.2551 14.5873 51.0817C13.9749 51.0492 13.5264 50.633 13.4512 50.1527L11.2996 36.4137C11.2141 35.8677 11.5877 35.3559 12.1337 35.2709L161.405 12.0256Z" stroke="url(#paint1_linear_219_21449)" stroke-width="2"/>
</g>
<g filter="url(#filter1_d_219_21449)">
<path d="M53.3356 59.3508L48.5203 53.9649L50.6299 52.1952L56.6077 58.8384L53.3356 59.3508ZM45.2442 60.6179L43.2948 48.1696L46.1579 47.7213L48.1073 60.1696L45.2442 60.6179ZM46.4862 55.2856L46.1102 52.8848L50.4493 52.2053L50.8253 54.606L46.4862 55.2856ZM51.1306 53.6473L48.4308 53.7421L51.4928 46.8858L54.5338 46.4096L51.1306 53.6473ZM58.4027 56.1523C59.1219 56.2462 59.7062 56.2154 60.1555 56.06C60.6149 55.8909 60.9838 55.493 61.2622 54.8664L61.7248 53.8648L61.9442 53.5207L64.8056 44.801L67.6331 44.3582L63.8765 55.04C63.5416 56.0034 63.0852 56.7733 62.5074 57.3496C61.9415 57.9241 61.2778 58.3013 60.5165 58.4813C59.757 58.6731 58.9354 58.6621 58.0517 58.4482L58.4027 56.1523ZM62.2668 55.9298L55.007 46.3355L58.0835 45.8537L63.5181 53.5657L62.2668 55.9298ZM71.1294 56.5642L69.18 44.1159L80.5257 42.3391L82.4751 54.7874L79.612 55.2358L77.9271 44.4769L78.6882 45.0319L71.7527 46.118L72.3076 45.357L73.9925 56.1158L71.1294 56.5642ZM85.7388 54.2763L83.7893 41.828L86.6524 41.3797L87.9224 49.4888L92.592 40.4495L95.2951 40.0262L97.2445 52.4745L94.3992 52.9201L93.1321 44.8287L88.4596 53.8502L85.7388 54.2763ZM103.207 51.5407L101.522 40.7818L102.283 41.3368L97.6596 42.0609L97.292 39.7135L108.086 38.023L108.454 40.3704L103.83 41.0945L104.368 40.3363L106.052 51.0951L103.207 51.5407ZM116.742 40.858C118.248 40.6222 119.463 40.7781 120.386 41.3258C121.308 41.8616 121.874 42.7993 122.084 44.139C122.307 45.5616 122.019 46.712 121.222 47.59C120.436 48.4661 119.243 49.0295 117.642 49.2801L112.023 50.1602L110.073 37.7119L112.936 37.2635L113.577 41.3537L116.742 40.858ZM117.148 47.1712C117.883 47.0561 118.435 46.7814 118.804 46.347C119.174 45.9126 119.303 45.3457 119.194 44.6463C119.086 43.9586 118.796 43.5001 118.322 43.2705C117.859 43.0272 117.254 42.9641 116.507 43.0811L113.911 43.4877L114.551 47.5778L117.148 47.1712ZM55.1615 78.2964L53.2121 65.8481L63.2596 64.2747L63.6188 66.5687L56.4344 67.6938L56.8354 70.2546L60.2854 69.7143C61.791 69.4785 62.9843 69.6135 63.8652 70.1193C64.7579 70.6233 65.298 71.474 65.4855 72.6714C65.6786 73.9043 65.3903 74.9333 64.6207 75.7583C63.8511 76.5834 62.666 77.1212 61.0655 77.3718L55.1615 78.2964ZM57.6904 75.7141L60.5713 75.2629C61.3063 75.1478 61.8472 74.9173 62.1939 74.5715C62.5387 74.2139 62.6675 73.7564 62.5802 73.1992C62.4094 72.1085 61.5652 71.682 60.0477 71.9196L57.1668 72.3708L57.6904 75.7141ZM68.4684 76.2125L66.5189 63.7642L69.382 63.3159L70.652 71.425L75.3216 62.3857L78.0247 61.9624L79.9741 74.4107L77.1288 74.8562L75.8617 66.7649L71.1892 75.7864L68.4684 76.2125ZM83.3197 74.0871C83.1063 74.1206 82.8782 74.1381 82.6356 74.1396C82.4047 74.1393 82.1484 74.1309 81.8664 74.1143L81.6627 71.6502C81.8361 71.6716 82.0117 71.6684 82.1895 71.6405C82.6756 71.5644 83.0244 71.3094 83.2358 70.8755C83.4453 70.4297 83.5509 69.824 83.5525 69.0586C83.5541 68.2931 83.4891 67.3741 83.3576 66.3015L82.7445 61.2232L92.3119 59.725L94.2613 72.1732L91.416 72.6188L89.7311 61.8599L90.4921 62.4149L84.9971 63.2754L85.4754 62.49L85.8839 65.7966C86.0395 67.0233 86.1264 68.1211 86.1445 69.0899C86.1627 70.0588 86.0874 70.8965 85.9187 71.6031C85.75 72.3097 85.4554 72.8721 85.035 73.2902C84.6147 73.7082 84.0429 73.9739 83.3197 74.0871ZM99.0338 63.8101L105.027 62.8716L105.378 65.1123L99.3847 66.0508L99.0338 63.8101ZM100.049 68.8983L106.825 67.8372L107.187 70.1491L97.5482 71.6585L95.5987 59.2102L105.006 57.737L105.368 60.0488L98.8239 61.0737L100.049 68.8983ZM112.377 69.3363L110.692 58.5774L111.453 59.1323L106.829 59.8564L106.462 57.509L117.256 55.8186L117.624 58.166L113 58.8901L113.537 58.1318L115.222 68.8907L112.377 69.3363Z" fill="white"/>
</g>
<g clip-path="url(#clip0_219_21449)">
<g filter="url(#filter2_d_219_21449)">
<path d="M145.614 42.6329L146.313 41.5791L153.644 46.439L154.152 46.7922L153.822 47.3153L148.962 54.6466L147.908 53.948L151.933 47.8767L141.315 50.0291L141.068 48.81L151.685 46.6576L145.614 42.6329Z" fill="white"/>
<path fill-rule="evenodd" clip-rule="evenodd" d="M135.964 50.4792C137.281 56.9745 143.614 61.1726 150.109 59.8559C156.604 58.5392 160.802 52.2063 159.486 45.711C158.169 39.2157 151.836 35.0176 145.341 36.3343C138.845 37.651 134.647 43.9839 135.964 50.4792ZM137.271 50.2143C138.441 55.9879 144.07 59.7195 149.844 58.5491C155.618 57.3787 159.349 51.7495 158.179 45.9759C157.009 40.2023 151.379 36.4706 145.606 37.641C139.832 38.8114 136.1 44.4407 137.271 50.2143Z" fill="white"/>
</g>
</g>
<defs>
<filter id="filter0_d_219_21449" x="4.28711" y="0.571533" width="207.221" height="113.95" filterUnits="userSpaceOnUse" color-interpolation-filters="sRGB">
<feFlood flood-opacity="0" result="BackgroundImageFix"/>
<feColorMatrix in="SourceAlpha" type="matrix" values="0 0 0 0 0 0 0 0 0 0 0 0 0 0 0 0 0 0 127 0" result="hardAlpha"/>
<feOffset dx="2" dy="2"/>
<feGaussianBlur stdDeviation="4"/>
<feComposite in2="hardAlpha" operator="out"/>
<feColorMatrix type="matrix" values="0 0 0 0 0.266667 0 0 0 0 0.603922 0 0 0 0 0.796078 0 0 0 1 0"/>
<feBlend mode="normal" in2="BackgroundImageFix" result="effect1_dropShadow_219_21449"/>
<feBlend mode="normal" in="SourceGraphic" in2="effect1_dropShadow_219_21449" result="shape"/>
</filter>
<filter id="filter1_d_219_21449" x="39.2949" y="32.0298" width="90.4395" height="51.5549" filterUnits="userSpaceOnUse" color-interpolation-filters="sRGB">
<feFlood flood-opacity="0" result="BackgroundImageFix"/>
<feColorMatrix in="SourceAlpha" type="matrix" values="0 0 0 0 0 0 0 0 0 0 0 0 0 0 0 0 0 0 127 0" result="hardAlpha"/>
<feOffset/>
<feGaussianBlur stdDeviation="2"/>
<feComposite in2="hardAlpha" operator="out"/>
<feColorMatrix type="matrix" values="0 0 0 0 0.420833 0 0 0 0 0.196389 0 0 0 0 0 0 0 0 0.6 0"/>
<feBlend mode="normal" in2="BackgroundImageFix" result="effect1_dropShadow_219_21449"/>
<feBlend mode="normal" in="SourceGraphic" in2="effect1_dropShadow_219_21449" result="shape"/>
</filter>
<filter id="filter2_d_219_21449" x="131.723" y="32.0928" width="32.0049" height="32.0046" filterUnits="userSpaceOnUse" color-interpolation-filters="sRGB">
<feFlood flood-opacity="0" result="BackgroundImageFix"/>
<feColorMatrix in="SourceAlpha" type="matrix" values="0 0 0 0 0 0 0 0 0 0 0 0 0 0 0 0 0 0 127 0" result="hardAlpha"/>
<feOffset/>
<feGaussianBlur stdDeviation="2"/>
<feComposite in2="hardAlpha" operator="out"/>
<feColorMatrix type="matrix" values="0 0 0 0 0.420833 0 0 0 0 0.196389 0 0 0 0 0 0 0 0 0.6 0"/>
<feBlend mode="normal" in2="BackgroundImageFix" result="effect1_dropShadow_219_21449"/>
<feBlend mode="normal" in="SourceGraphic" in2="effect1_dropShadow_219_21449" result="shape"/>
</filter>
<radialGradient id="paint0_radial_219_21449" cx="0" cy="0" r="1" gradientUnits="userSpaceOnUse" gradientTransform="translate(43.1285 41.9831) rotate(12.1188) scale(244.415 321.473)">
<stop stop-color="#FF9D00"/>
<stop offset="0.540765" stop-color="#FFBF35"/>
<stop offset="1" stop-color="#FFC870"/>
</radialGradient>
<linearGradient id="paint1_linear_219_21449" x1="187.814" y1="78.2747" x2="-39.9776" y2="88.1011" gradientUnits="userSpaceOnUse">
<stop stop-color="#E29000"/>
<stop offset="1" stop-color="#F59C00"/>
</linearGradient>
<clipPath id="clip0_219_21449">
<rect width="24" height="24" rx="12" transform="matrix(-0.980066 0.198674 0.198674 0.980066 157.102 33.9502)" fill="white"/>
</clipPath>
</defs>
</svg>
